<svg width="360" height="360" viewBox="0 0 360 360" fill="none" xmlns="http://www.w3.org/2000/svg">
<g clip-path="url(#clip0_1023_49)">
<path d="M180 0C279.4 0 360 80.6 360 180C360 279.4 279.4 360 180 360C80.6 360 0 279.4 0 180C0 80.6 80.6 0 180 0Z" fill="#3B00B9"/>
<path fill-rule="evenodd" clip-rule="evenodd" d="M40.3998 190.4C45.3998 259.4 100.6 314.6 169.6 319.6V335.2C91.9998 330 29.9998 268 24.7998 190.4H40.3998Z" fill="url(#paint0_linear_1023_49)"/>
<path fill-rule="evenodd" clip-rule="evenodd" d="M169.6 40.4C100.6 45.4 45.3998 100.6 40.3998 169.6H24.7998C29.7998 92 91.9998 29.8 169.6 24.8V40.4Z" fill="#29ABE2"/>
<path fill-rule="evenodd" clip-rule="evenodd" d="M319.6 169.4C314.6 100.4 259.4 45.2 190.4 40.2V24.6C268 29.8 330.2 91.8 335.2 169.4H319.6Z" fill="url(#paint1_linear_1023_49)"/>
<path fill-rule="evenodd" clip-rule="evenodd" d="M190.4 319.6C259.4 314.6 314.6 259.4 319.6 190.4H335.2C330.2 268 268 330 190.4 335.2V319.6Z" fill="#29ABE2"/>
<g clip-path="url(#clip1_1023_49)">
<path d="M264.125 222.781L236.061 252.102C235.451 252.738 234.713 253.246 233.893 253.593C233.072 253.94 232.187 254.119 231.293 254.119H98.258C97.6232 254.119 97.0022 253.938 96.4714 253.599C95.9406 253.26 95.523 252.777 95.27 252.21C95.017 251.643 94.9395 251.016 95.0472 250.407C95.1548 249.797 95.4429 249.232 95.876 248.779L123.961 219.459C124.569 218.824 125.305 218.317 126.122 217.97C126.94 217.623 127.822 217.443 128.714 217.442H261.742C262.377 217.442 262.998 217.623 263.529 217.962C264.059 218.301 264.477 218.784 264.731 219.351C264.983 219.918 265.061 220.544 264.953 221.154C264.845 221.763 264.557 222.329 264.125 222.781ZM236.061 163.738C235.451 163.101 234.713 162.593 233.893 162.246C233.072 161.899 232.187 161.72 231.293 161.721H98.258C97.6232 161.721 97.0022 161.902 96.4714 162.241C95.9406 162.58 95.523 163.063 95.27 163.63C95.017 164.197 94.9395 164.824 95.0472 165.433C95.1548 166.042 95.4429 166.608 95.876 167.06L123.961 196.381C124.569 197.016 125.305 197.523 126.122 197.87C126.94 198.217 127.822 198.397 128.714 198.398H261.742C262.377 198.398 262.998 198.217 263.529 197.878C264.059 197.539 264.477 197.056 264.731 196.489C264.983 195.922 265.061 195.295 264.953 194.686C264.845 194.076 264.557 193.511 264.125 193.059L236.061 163.738ZM98.258 142.677H231.293C232.187 142.677 233.072 142.499 233.893 142.152C234.713 141.805 235.451 141.297 236.061 140.66L264.125 111.339C264.557 110.887 264.845 110.322 264.953 109.712C265.061 109.103 264.983 108.476 264.731 107.909C264.477 107.342 264.059 106.859 263.529 106.52C262.998 106.181 262.377 106 261.742 106H128.714C127.822 106.001 126.94 106.181 126.122 106.528C125.305 106.875 124.569 107.382 123.961 108.017L95.8832 137.338C95.4506 137.789 95.1626 138.354 95.0547 138.963C94.9468 139.572 95.0237 140.198 95.2758 140.765C95.5279 141.332 95.9444 141.815 96.4741 142.154C97.0039 142.494 97.6238 142.676 98.258 142.677Z" fill="white"/>
</g>
</g>
<defs>
<linearGradient id="paint0_linear_1023_49" x1="130.72" y1="304.12" x2="33.4798" y2="222.22" gradientUnits="userSpaceOnUse">
<stop offset="0.21" stop-color="#ED1E79"/>
<stop offset="1" stop-color="#522785"/>
</linearGradient>
<linearGradient id="paint1_linear_1023_49" x1="309.32" y1="123.06" x2="212.08" y2="41.16" gradientUnits="userSpaceOnUse">
<stop offset="0.21" stop-color="#F15A24"/>
<stop offset="0.68" stop-color="#FBB03B"/>
</linearGradient>
<clipPath id="clip0_1023_49">
<rect width="360" height="360" fill="white"/>
</clipPath>
<clipPath id="clip1_1023_49">
<rect width="170" height="148.119" fill="white" transform="translate(95 106)"/>
</clipPath>
</defs>
</svg>
